<svg width="33" height="33" viewBox="0 0 33 33" fill="none" xmlns="http://www.w3.org/2000/svg">
<path d="M16.3034 32.6069C25.3076 32.6069 32.6069 25.3076 32.6069 16.3034C32.6069 7.2993 25.3076 0 16.3034 0C7.2993 0 0 7.2993 0 16.3034C0 25.3076 7.2993 32.6069 16.3034 32.6069Z" fill="#0060D9"/>
<path fill-rule="evenodd" clip-rule="evenodd" d="M22.4188 18.9518C26.6051 16.2434 29.4248 12.5298 29.4699 9.82275C30.5329 12.593 27.2316 17.3025 22.0653 20.3802C22.0905 20.302 22.1126 20.2216 22.1325 20.1399L22.4188 18.9518Z" fill="#03045E"/>
<path fill-rule="evenodd" clip-rule="evenodd" d="M11.1602 25.455H20.9537C23.0763 25.455 24.8091 23.723 24.8091 21.6014V11.8135C24.8091 11.5918 24.7897 11.3739 24.7548 11.161C26.6237 9.6539 28.3579 8.8131 29.61 9.11531C24.0244 6.80278 17.1187 19.0657 15.7932 21.4821L10.9185 14.2246L15.4689 16.8919C18.2122 13.3732 21.179 10.6909 23.7408 9.15596C23.0369 8.42076 22.0468 7.95993 20.9537 7.95993H11.1602C9.03851 7.95993 7.30566 9.69189 7.30566 11.8131V21.6014C7.30566 23.723 9.03807 25.455 11.1602 25.455Z" fill="#ADE8F4"/>
</svg>
